HIERARCHY
ROOT Hips
{
  OFFSET 55.6786 94.5073 10.6888
  CHANNELS 6 Xposition Yposition Zposition Zrotation Xrotation Yrotation
  JOINT spine
  {
    OFFSET 0 7.80058 0.448573
    CHANNELS 3 Zrotation Xrotation Yrotation
    JOINT spine1
    {
      OFFSET 0 10.1364 0
      CHANNELS 3 Zrotation Xrotation Yrotation
      JOINT spine2
      {
        OFFSET 0 9.71251 0
        CHANNELS 3 Zrotation Xrotation Yrotation
        JOINT Neck
        {
          OFFSET 0 24.9361 1.18887
          CHANNELS 3 Zrotation Xrotation Yrotation
          JOINT Head
          {
            OFFSET 0 7.53384 0
            CHANNELS 3 Zrotation Xrotation Yrotation
            End Site
            {
              OFFSET 0 18.2361 -6.01402
            }
          }
        }
        JOINT RightShoulder
        {
          OFFSET -4.08965 10.4888 -0.569457
          CHANNELS 3 Zrotation Xrotation Yrotation
          JOINT RightArm
          {
            OFFSET 0 13.757 0
            CHANNELS 3 Zrotation Xrotation Yrotation
            JOINT RightArmRoll
            {
              OFFSET 0 6.94478 0
              CHANNELS 3 Zrotation Xrotation Yrotation
              JOINT RightForeArm
              {
                OFFSET 0 20.2277 0
                CHANNELS 3 Zrotation Xrotation Yrotation
                JOINT RightForeArmRoll
                {
                  OFFSET 0 7.79312 0
                  CHANNELS 3 Zrotation Xrotation Yrotation
                  JOINT RightHand
                  {
                    OFFSET 0 15.6391 0
                    CHANNELS 3 Zrotation Xrotation Yrotation
                    End Site
                    {
                      OFFSET 0 0 0
                    }
                  }
                }
              }
            }
          }
        }
        JOINT LeftShoulder
        {
          OFFSET 4.08965 10.4888 -0.569457
          CHANNELS 3 Zrotation Xrotation Yrotation
          JOINT LeftArm
          {
            OFFSET 0 13.757 0
            CHANNELS 3 Zrotation Xrotation Yrotation
            JOINT LeftArmRoll
            {
              OFFSET 0 6.94478 0
              CHANNELS 3 Zrotation Xrotation Yrotation
              JOINT LeftForeArm
              {
                OFFSET 0 20.2277 0
                CHANNELS 3 Zrotation Xrotation Yrotation
                JOINT LeftForeArmRoll
                {
                  OFFSET 0 7.79312 0
                  CHANNELS 3 Zrotation Xrotation Yrotation
                  JOINT LeftHand
                  {
                    OFFSET 0 15.6391 0
                    CHANNELS 3 Zrotation Xrotation Yrotation
                    End Site
                    {
                      OFFSET 0 0 0
                    }
                  }
                }
              }
            }
          }
        }
      }
    }
  }
  JOINT RightUpLeg
  {
    OFFSET -6.91415 -1.26788 -1.06358
    CHANNELS 3 Zrotation Xrotation Yrotation
    JOINT RightUpLegRoll
    {
      OFFSET 0 18.3378 0
      CHANNELS 3 Zrotation Xrotation Yrotation
      JOINT RightLeg
      {
        OFFSET 0 -22.7085 0
        CHANNELS 3 Zrotation Xrotation Yrotation
        JOINT RightLegRoll
        {
          OFFSET 0 22.7828 0
          CHANNELS 3 Zrotation Xrotation Yrotation
          JOINT RightFoot
          {
            OFFSET 0 18.9629 0
            CHANNELS 3 Zrotation Xrotation Yrotation
            JOINT RightToeBase
            {
              OFFSET 0 15.852 0
              CHANNELS 3 Zrotation Xrotation Yrotation
              End Site
              {
                OFFSET 0.00671906 7.677 -0.884893
              }
            }
          }
        }
      }
    }
  }
  JOINT LeftUpLeg
  {
    OFFSET 6.91415 -1.26788 -1.06358
    CHANNELS 3 Zrotation Xrotation Yrotation
    JOINT LeftUpLegRoll
    {
      OFFSET 0 18.3379 0
      CHANNELS 3 Zrotation Xrotation Yrotation
      JOINT LeftLeg
      {
        OFFSET 0 22.7084 0
        CHANNELS 3 Zrotation Xrotation Yrotation
        JOINT LeftLegRoll
        {
          OFFSET 0 22.9934 0
          CHANNELS 3 Zrotation Xrotation Yrotation
          JOINT LeftFoot
          {
            OFFSET 0 18.7522 0
            CHANNELS 3 Zrotation Xrotation Yrotation
            JOINT LeftToeBase
            {
              OFFSET 0 15.852 0
              CHANNELS 3 Zrotation Xrotation Yrotation
              End Site
              {
                OFFSET -0.030112 7.67701 -0.884893
              }
            }
          }
        }
      }
    }
  }
}
MOTION
Frames: 12
Frame Time: 0.00208333
51.674 81.1613 6.72954 1.53952 0.818567 -0.399789 0.0108305 -1.20847 0.256387 0.024597 1.58593 0.51164 0.0184781 3.23097 0.511537 -17.6432 -2.21325 -2.98351 17.554 -3.07046 -3.16275 13.3983 -16.9178 -15.9167 2.9256 34.6503 101.944 -3.41212e-006 8.24826e-007 3.17832e-006 -4.4181 52.3171 6.08334 6.76844e-006 -2.63182e-006 -3 8.02893 -4.95146 0.69772 -33.2649 -16.1439 12.3144 -11.377 24.0814 -80.9544 -3.09923e-006 -1.54209e-006 -3.24749e-006 14.9671 53.376 -12.9655 3.81145e-006 1.30204e-006 3 -8.02918 -4.95167 -0.697756 157.764 23.2866 8.50563 180 7.01559e-015 178.975 -164.96 55.8601 171.034 2.32068e-006 -2.09089e-006 4.5278 -110.63 85.0243 122.621 8.14883 25.428 -3.25048 -155.527 25.6116 -12.2557 4.54188e-006 -4.6773e-006 -0.973281 5.44717 -59.7481 2.87747 7.72113e-007 -4.4821e-006 -4.63904 65.5063 83.678 -70.7095 -8.18288 27.3656 1.12663 
51.6098 81.022 6.76385 1.56655 0.82657 -0.396696 -0.00609148 -1.19609 0.256165 -0.0092884 1.61063 0.513067 -0.0154522 3.25567 0.513536 -17.4172 -2.27818 -2.9965 17.3826 -3.0724 -3.15615 13.4564 -16.9565 -15.9623 2.54615 34.4963 102.331 -3.41212e-006 8.24826e-007 3.17832e-006 -4.42278 52.4518 6.12605 6.76844e-006 -2.63182e-006 -3 8.02893 -4.95146 0.69772 -33.0886 -16.2245 12.4158 -11.2053 24.2541 -81.4162 -3.09923e-006 -1.54209e-006 -3.24749e-006 15.1081 53.5882 -13.1638 3.81145e-006 1.30204e-006 3 -8.02918 -4.95167 -0.697756 157.71 23.4176 8.49546 180 7.01565e-015 179.007 -164.666 56.2146 170.736 2.32068e-006 -2.09089e-006 4.49408 -113.146 84.9972 125.547 8.14918 25.4326 -3.24415 -155.559 25.7301 -12.1907 4.54188e-006 -4.6773e-006 -0.977235 5.7064 -60.0269 3.00028 7.72115e-007 -4.48212e-006 -4.73729 68.2901 83.8347 -73.6311 -8.18531 27.2609 1.24453 
51.6721 80.806 6.72449 1.59594 0.829979 -0.397427 -0.0239638 -1.1841 0.256074 -0.0450734 1.63453 0.514858 -0.0512884 3.27957 0.515931 -17.1878 -2.32478 -3.00388 17.2099 -3.08361 -3.14533 13.5147 -16.9923 -16.0037 2.18585 34.3522 102.716 -3.41212e-006 8.24826e-007 3.17832e-006 -4.43057 52.5806 6.16895 6.76844e-006 -2.63182e-006 -3 8.02893 -4.95146 0.69772 -32.909 -16.3038 12.5163 -11.0431 24.4317 -81.8664 -3.09923e-006 -1.54209e-006 -3.24749e-006 15.2423 53.7944 -13.3553 3.81145e-006 1.30204e-006 3 -8.02918 -4.95167 -0.697756 157.656 23.538 8.47968 180 7.01572e-015 179.039 -164.37 56.5471 170.436 2.32068e-006 -2.09089e-006 4.4541 -115.417 84.9711 128.225 8.14984 25.4425 -3.23212 -155.601 25.8318 -12.1149 4.54188e-006 -4.6773e-006 -0.98142 5.96426 -60.2832 3.12209 7.72116e-007 -4.48213e-006 -4.83328 71.1012 83.9715 -76.5791 -8.18721 27.1593 1.35885 
51.6079 80.691 6.76514 1.62765 0.830551 -0.40202 -0.0424839 -1.17288 0.256203 -0.0821512 1.65689 0.517157 -0.0884251 3.30193 0.518855 -16.9608 -2.35467 -3.0064 17.0402 -3.10263 -3.1312 13.5714 -17.0254 -16.0413 1.84587 34.2192 103.095 -3.41212e-006 8.24826e-007 3.17832e-006 -4.44212 52.6986 6.21148 6.76844e-006 -2.63182e-006 -3 8.02893 -4.95146 0.69772 -32.73 -16.3807 12.6147 -10.8886 24.6115 -82.3036 -3.09923e-006 -1.54209e-006 -3.24749e-006 15.3698 53.9919 -13.5388 3.81145e-006 1.30204e-006 3 -8.02918 -4.95167 -0.697756 157.602 23.65 8.45931 180 7.01579e-015 179.071 -164.073 56.8585 170.135 2.32068e-006 -2.09089e-006 4.40905 -117.478 84.9465 130.69 8.15073 25.4565 -3.21565 -155.651 25.9194 -12.0318 4.54188e-006 -4.6773e-006 -0.985737 6.21745 -60.5202 3.24136 7.72117e-007 -4.48215e-006 -4.92664 73.9269 84.0892 -79.5402 -8.18861 27.0612 1.4692 
51.6679 80.5107 6.73828 1.66165 0.830042 -0.410513 -0.0613492 -1.16279 0.25664 -0.119915 1.67698 0.520106 -0.126257 3.32202 0.522441 -16.7417 -2.36945 -3.00479 16.8777 -3.12798 -3.11468 13.6248 -17.0561 -16.0758 1.52732 34.0985 103.463 -3.41212e-006 8.24826e-007 3.17832e-006 -4.45808 52.801 6.2531 6.76844e-006 -2.63182e-006 -3 8.02893 -4.95146 0.69772 -32.5554 -16.4545 12.7095 -10.74 24.7911 -82.7263 -3.09923e-006 -1.54209e-006 -3.24749e-006 15.4905 54.1778 -13.7133 3.81145e-006 1.30204e-006 3 -8.02918 -4.95167 -0.697756 157.549 23.7556 8.43536 180 7.01585e-015 179.104 -163.776 57.1498 169.834 2.32068e-006 -2.0909e-006 4.36015 -119.359 84.9234 132.969 8.15179 25.4736 -3.19599 -155.706 25.996 -11.945 4.54188e-006 -4.6773e-006 -0.990086 6.46271 -60.741 3.35656 7.72118e-007 -4.48217e-006 -5.01704 76.7539 84.1884 -82.5001 -8.18955 26.9668 1.57516 
51.5846 80.3819 6.76285 1.69787 0.830212 -0.422944 -0.0802571 -1.15421 0.257475 -0.157759 1.69405 0.523849 -0.164178 3.33909 0.526823 -16.5364 -2.37074 -2.9998 16.7266 -3.15819 -3.0967 13.6733 -17.0846 -16.1079 1.23124 33.9915 103.816 -3.41212e-006 8.24826e-007 3.17832e-006 -4.47907 52.8827 6.29321 6.76844e-006 -2.63182e-006 -3 8.02893 -4.95146 0.69772 -32.3894 -16.5245 12.7995 -10.5956 24.9681 -83.1328 -3.09923e-006 -1.54209e-006 -3.24749e-006 15.6043 54.3493 -13.8774 3.81145e-006 1.30204e-006 3 -8.02918 -4.95167 -0.697756 157.496 23.8567 8.40888 180 7.01591e-015 179.136 -163.481 57.4219 169.535 2.32068e-006 -2.0909e-006 4.30859 -121.088 84.9012 135.089 8.15293 25.4924 -3.1744 -155.766 26.0645 -11.858 4.54188e-006 -4.6773e-006 -0.994368 6.69677 -60.9486 3.46617 7.72118e-007 -4.48219e-006 -5.1041 79.5691 84.2697 -85.4448 -8.19006 26.8765 1.67634 
51.6302 80.2076 6.74804 1.7363 0.832816 -0.439353 -0.0989051 -1.1475 0.258797 -0.195075 1.70738 0.52853 -0.201583 3.35241 0.532134 -16.3505 -2.36015 -2.99216 16.5911 -3.19179 -3.07816 13.7152 -17.1111 -16.1383 0.958622 33.8998 104.15 -3.41212e-006 8.24826e-007 3.17832e-006 -4.50566 52.939 6.33119 6.76844e-006 -2.63182e-006 -3 8.02893 -4.95146 0.69772 -32.2358 -16.5897 12.8835 -10.4539 25.14 -83.5207 -3.09923e-006 -1.54209e-006 -3.24749e-006 15.711 54.5036 -14.0299 3.81145e-006 1.30204e-006 3 -8.02918 -4.95167 -0.697756 157.442 23.9555 8.3809 180 7.01597e-015 179.168 -163.188 57.6757 169.24 2.32068e-006 -2.0909e-006 4.25558 -122.688 84.8791 137.072 8.15409 25.5119 -3.15213 -155.827 26.1278 -11.7744 4.54188e-006 -4.6773e-006 -0.998484 6.91641 -61.1462 3.56867 7.72117e-007 -4.48219e-006 -5.18748 82.3586 84.3339 -88.3596 -8.1902 26.7907 1.77233 
51.6007 80.1312 6.7953 1.77687 0.839613 -0.459778 -0.116991 -1.14304 0.260695 -0.231257 1.71621 0.534292 -0.237865 3.36125 0.538508 -16.1897 -2.33929 -2.98262 16.4753 -3.2273 -3.05998 13.7488 -17.1357 -16.1676 0.710393 33.825 104.461 -3.41212e-006 8.24826e-007 3.17832e-006 -4.53843 52.9649 6.36641 6.76844e-006 -2.63182e-006 -3 8.02893 -4.95146 0.69772 -32.0986 -16.6495 12.9601 -10.3134 25.3046 -83.8878 -3.09923e-006 -1.54209e-006 -3.24749e-006 15.8104 54.638 -14.1694 3.81145e-006 1.30204e-006 3 -8.02918 -4.95167 -0.697756 157.388 24.0539 8.35245 180 7.01602e-015 179.198 -162.899 57.9123 168.95 2.32068e-006 -2.09091e-006 4.20232 -124.181 84.8558 138.937 8.15521 25.5309 -3.13045 -155.889 26.1889 -11.6976 4.54188e-006 -4.6773e-006 -1.00233 7.11841 -61.3369 3.6626 7.72116e-007 -4.4822e-006 -5.26681 85.1099 84.3818 -91.2312 -8.19 26.7097 1.86275 
51.6248 79.9502 6.77783 1.81956 0.85236 -0.484256 -0.134211 -1.14119 0.263258 -0.265696 1.71982 0.541279 -0.272417 3.36486 0.546076 -16.0597 -2.30978 -2.97192 16.3834 -3.26325 -3.04308 13.7724 -17.1587 -16.1964 0.487478 33.769 104.743 -3.41212e-006 8.24826e-007 3.17832e-006 -4.57795 52.9554 6.39826 6.76844e-006 -2.63182e-006 -3 8.02893 -4.95146 0.69772 -31.982 -16.7029 13.028 -10.1729 25.4597 -84.2315 -3.09923e-006 -1.54209e-006 -3.24749e-006 15.9022 54.7496 -14.2946 3.81145e-006 1.30204e-006 3 -8.02918 -4.95167 -0.697756 157.332 24.1539 8.32458 180 7.01607e-015 179.228 -162.616 58.1327 168.667 2.32068e-006 -2.09091e-006 4.15001 -125.585 84.8298 140.701 8.15621 25.5482 -3.11062 -155.949 26.2507 -11.6313 4.54188e-006 -4.6773e-006 -1.00582 7.29955 -61.5238 3.74648 7.72114e-007 -4.48219e-006 -5.34174 87.8108 84.4142 -94.0464 -8.18951 26.6338 1.94719 
51.6018 79.8382 6.80419 1.86433 0.872813 -0.512827 -0.150263 -1.14232 0.266576 -0.297783 1.71747 0.549634 -0.304632 3.36251 0.554974 -15.9663 -2.27322 -2.9608 16.3196 -3.29816 -3.02838 13.7843 -17.1803 -16.2255 0.290829 33.7338 104.994 -3.41212e-006 8.24826e-007 3.17832e-006 -4.62477 52.9057 6.42611 6.76844e-006 -2.63182e-006 -3 8.02893 -4.95146 0.69772 -31.8898 -16.7492 13.0859 -10.031 25.6031 -84.5488 -3.09923e-006 -1.54209e-006 -3.24749e-006 15.9862 54.8358 -14.4041 3.81145e-006 1.30204e-006 3 -8.02918 -4.95167 -0.697756 157.274 24.2576 8.29834 180 -7.01612e-015 179.256 -162.339 58.3378 168.392 2.32068e-006 -2.09091e-006 4.09985 -126.915 84.7993 142.378 8.15705 25.5626 -3.0939 -156.005 26.3161 -11.5791 4.54188e-006 -4.6773e-006 -1.00884 7.45664 -61.71 3.81884 7.72112e-007 -4.48218e-006 -5.41191 90.4507 84.4319 -96.7937 -8.18879 26.5634 2.02526 
51.6258 79.6984 6.79532 1.91116 0.902731 -0.545529 -0.164843 -1.1468 0.270737 -0.326908 1.70842 0.5595 -0.333899 3.35346 0.565334 -15.9149 -2.23123 -2.95001 16.2881 -3.33057 -3.0168 13.7828 -17.2008 -16.2554 0.121405 33.7213 105.209 -3.41212e-006 8.24826e-007 3.17832e-006 -4.67947 52.8109 6.44935 6.76844e-006 -2.63182e-006 -3 8.02893 -4.95146 0.69772 -31.8261 -16.7876 13.1325 -9.8866 25.7327 -84.8368 -3.09923e-006 -1.54209e-006 -3.24749e-006 16.0621 54.8935 -14.4965 3.81145e-006 1.30204e-006 3 -8.02918 -4.95167 -0.697756 157.214 24.367 8.27478 180 7.01616e-015 179.282 -162.07 58.5286 168.126 2.32068e-006 -2.09091e-006 4.05306 -128.184 84.7625 143.977 8.15766 25.5731 -3.08155 -156.055 26.3883 -11.5444 4.54188e-006 -4.6773e-006 -1.01129 7.58649 -61.8986 3.87823 7.7211e-007 -4.48216e-006 -5.47698 93.0202 84.4357 -99.4629 -8.18788 26.4988 2.09656 
51.6283 79.6096 6.81459 1.96003 0.94387 -0.582402 -0.177647 -1.155 0.27583 -0.35246 1.69194 0.571021 -0.359608 3.33697 0.577288 -15.9115 -2.18542 -2.94028 16.2931 -3.35899 -3.00925 13.7662 -17.2202 -16.2868 -0.0197865 33.7334 105.382 -3.41212e-006 8.24826e-007 3.17832e-006 -4.74265 52.6661 6.46744 6.76844e-006 -2.63182e-006 -3 8.02893 -4.95146 0.69772 -31.7949 -16.8174 13.1665 -9.73855 25.8464 -85.0924 -3.09923e-006 -1.54209e-006 -3.24749e-006 16.1298 54.9202 -14.5706 3.81145e-006 1.30204e-006 3 -8.02918 -4.95167 -0.697756 157.152 24.4841 8.25495 180 7.01619e-015 179.305 -161.811 58.7062 167.871 2.32068e-006 -2.09091e-006 4.01082 -129.401 84.7172 145.509 8.15799 25.5783 -3.07483 -156.097 26.47 -11.5309 4.54188e-006 -4.6773e-006 -1.01308 7.68588 -62.0927 3.92317 7.72107e-007 -4.48212e-006 -5.53657 95.5112 84.4263 -102.045 -8.18683 26.4403 2.1607 
